<?xml version="1.0" encoding="UTF-8" standalone="no"?>
<!-- Created with Inkscape (http://www.inkscape.org/) -->

<svg
   xmlns:rdf="http://www.w3.org/1999/02/22-rdf-syntax-ns#"
   xmlns:svg="http://www.w3.org/2000/svg"
   xmlns="http://www.w3.org/2000/svg"
   width="720px"
   height="486px"
   viewBox="0 0 720 486"
   version="1.1"
   id="SVGRoot"
   inkscape:version="0.92+devel unknown"
   sodipodi:docname="bear.svg">
  <sodipodi:namedview
     id="base"
     pagecolor="#ffffff"
     bordercolor="#666666"
     borderopacity="1.0"
     inkscape:pageopacity="0.0"
     inkscape:pageshadow="2"
     inkscape:zoom="0.35"
     inkscape:cx="360"
     inkscape:cy="243"
     inkscape:document-units="px"
     inkscape:current-layer="layer1"
     inkscape:document-rotation="0"
     showgrid="false"
     inkscape:window-width="1920"
     inkscape:window-height="1005"
     inkscape:window-x="0"
     inkscape:window-y="0"
     inkscape:window-maximized="1" />
  <defs
     id="defs175" />
  <metadata
     id="metadata178">
    <rdf:RDF>
      <cc:Work
         rdf:about="">
        <dc:format>image/svg+xml</dc:format>
        <dc:type
           rdf:resource="http://purl.org/dc/dcmitype/StillImage" />
        <dc:title></dc:title>
      </cc:Work>
    </rdf:RDF>
  </metadata>
  <g
     id="layer1"
     inkscape:groupmode="layer"
     inkscape:label="Layer 1">
    <g
       transform="matrix(0.12092344,0,0,-0.12974562,-0.66066944,728.92443)"
       fill="#000000"
       stroke="none"
       id="g10">
      <path
         inkscape:connector-curvature="0"
         d="m 851,3729 c -57,-5 -152,-20 -210,-33 -58,-13 -135,-29 -171,-36 -172,-32 -315,-103 -368,-182 l -26,-40 29,-55 c 38,-73 103,-143 162,-175 39,-22 57,-25 96,-21 41,5 50,10 58,32 13,33 38,61 55,61 26,0 26,-47 1,-121 -14,-41 -28,-90 -31,-110 -3,-20 -10,-48 -15,-62 -5,-14 -19,-64 -31,-112 -11,-48 -30,-108 -42,-134 -12,-25 -23,-55 -24,-66 -3,-24 -40,-133 -54,-156 -5,-9 -6,-26 -3,-37 3,-12 -2,-31 -11,-44 -22,-31 -20,-96 4,-136 11,-18 20,-39 20,-47 0,-8 4,-15 9,-15 5,0 13,-9 16,-21 4,-11 23,-36 43,-54 31,-29 45,-35 84,-35 39,0 50,4 71,30 14,17 28,30 32,30 3,0 22,-11 43,-24 56,-36 109,-51 128,-35 12,10 17,10 23,1 10,-17 111,3 177,34 28,13 59,24 68,24 33,0 194,59 278,101 136,69 179,101 241,181 48,64 56,79 49,99 -5,13 -7,30 -4,38 2,7 -8,44 -24,83 -33,82 -87,146 -197,231 -43,33 -82,68 -87,77 -8,14 9,37 86,116 102,106 148,183 159,265 5,35 3,48 -9,58 -9,8 -16,25 -16,39 0,55 -273,273 -303,243 -6,-6 -26,-3 -49,5 -44,15 -97,16 -257,3 z m 214,-334 c -39,-50 -151,-138 -220,-172 l -60,-30 -24,29 c -13,17 -48,46 -78,65 -29,20 -53,37 -53,39 0,11 109,56 177,73 95,24 118,28 211,30 l 73,1 z m 123,-595 c 69,-30 71,-56 7,-100 -24,-17 -50,-39 -57,-49 -29,-41 -475,-217 -496,-196 -3,2 20,75 49,161 l 54,157 110,28 c 138,36 250,36 333,-1 z"
         id="path2" />
      <path
         inkscape:connector-curvature="0"
         d="m 5230,3725 c -72,-23 -150,-93 -236,-212 -44,-59 -102,-132 -130,-161 l -50,-54 -33,16 c -18,10 -44,16 -58,14 -34,-4 -51,-52 -93,-266 -18,-86 -41,-179 -51,-207 -10,-27 -19,-71 -19,-97 0,-26 -5,-50 -10,-53 -6,-3 -8,-16 -4,-29 3,-12 -4,-60 -16,-107 -12,-46 -20,-103 -18,-126 2,-24 -1,-44 -7,-46 -5,-2 -2,-15 7,-29 9,-14 20,-49 24,-77 4,-28 10,-51 15,-51 5,0 15,-13 24,-30 9,-16 22,-30 29,-30 8,0 27,-7 43,-17 28,-16 31,-15 60,7 17,12 36,19 42,16 23,-15 101,144 101,208 1,52 16,51 83,-5 36,-30 90,-69 119,-87 114,-68 439,-185 568,-204 103,-15 174,5 213,59 19,26 23,40 16,49 -7,8 -6,15 2,19 18,12 4,118 -22,165 -13,22 -32,42 -44,44 -11,3 -56,9 -100,15 -157,22 -337,74 -419,121 -42,24 -90,55 -108,70 l -31,26 159,54 c 266,89 369,152 420,257 45,91 40,165 -20,318 -26,66 -61,137 -77,157 -16,20 -29,42 -29,48 0,31 -257,241 -292,239 -7,0 -33,-7 -58,-14 z m 78,-472 c 45,-46 80,-119 64,-135 -29,-28 -342,-135 -356,-121 -8,9 24,85 51,122 51,69 158,179 176,180 10,0 39,-20 65,-46 z"
         id="path4" />
      <path
         inkscape:connector-curvature="0"
         d="m 3758,3668 c -51,-77 -104,-137 -153,-176 -37,-29 -54,-35 -105,-37 -74,-4 -78,-8 -161,-170 -34,-66 -70,-132 -80,-147 -11,-14 -19,-35 -19,-46 0,-10 -48,-117 -106,-238 -135,-279 -194,-415 -194,-447 0,-14 -7,-28 -16,-31 -15,-6 -15,-9 4,-29 11,-12 25,-40 31,-62 6,-22 14,-44 18,-50 20,-27 94,-75 115,-75 49,0 98,13 98,26 0,7 19,23 43,36 34,19 44,30 51,63 20,93 61,211 78,227 10,9 18,28 18,41 0,17 7,28 20,32 11,3 20,13 20,20 0,8 5,26 11,42 10,26 12,27 19,8 5,-11 9,-31 9,-44 1,-13 12,-39 26,-57 14,-18 25,-37 25,-43 0,-14 101,-25 157,-16 27,3 82,15 125,26 42,10 97,19 122,19 h 46 v -36 c 0,-46 -41,-88 -101,-104 -24,-6 -50,-13 -58,-16 -10,-3 2,-21 39,-59 47,-48 54,-59 52,-90 -2,-19 2,-35 8,-35 6,0 28,-12 50,-26 34,-23 47,-26 86,-20 97,13 196,92 250,197 25,50 26,59 20,144 -3,49 -9,104 -12,122 -5,25 -2,32 15,38 62,19 198,171 164,182 -7,3 -28,18 -49,34 -20,16 -45,29 -55,29 -9,0 -27,12 -38,26 -19,24 -25,26 -74,20 l -53,-7 -16,53 c -19,62 -68,310 -97,487 -11,74 -26,130 -35,139 -8,8 -63,32 -123,52 -59,20 -115,40 -124,44 -11,5 -25,-7 -51,-46 z m 57,-649 c 30,-120 35,-153 25,-159 -16,-10 -89,-19 -217,-29 -72,-5 -92,-4 -89,6 19,48 224,333 240,333 2,0 21,-68 41,-151 z"
         id="path6" />
      <path
         inkscape:connector-curvature="0"
         d="m 2565,3679 c -271,-39 -642,-129 -723,-175 -70,-41 -76,-56 -57,-161 19,-111 40,-176 66,-199 10,-9 19,-21 19,-27 0,-5 -29,-71 -65,-147 -36,-76 -65,-143 -65,-149 0,-5 -10,-19 -22,-31 -12,-11 -23,-28 -25,-38 -1,-10 -14,-43 -28,-73 -13,-30 -25,-70 -25,-89 0,-55 37,-267 49,-282 6,-7 22,-29 34,-48 61,-94 259,-131 502,-95 55,9 111,13 125,10 39,-8 308,43 367,69 28,14 71,42 95,64 43,40 97,122 80,122 -5,0 -16,18 -25,40 -8,22 -22,40 -29,40 -8,0 -36,23 -62,50 -39,40 -53,49 -70,44 -159,-52 -679,-104 -712,-72 -7,7 59,138 98,196 22,32 34,42 46,37 10,-4 92,-6 184,-6 198,1 228,9 368,102 94,61 100,71 80,123 -6,17 -17,26 -30,26 -26,0 -133,99 -126,117 7,16 -26,17 -200,3 -71,-6 -145,-8 -165,-5 -35,6 -37,9 -41,47 -3,36 -1,41 22,49 14,5 32,13 40,16 8,4 49,12 90,19 41,6 105,23 142,38 37,14 121,35 186,46 141,24 187,39 246,79 56,39 78,74 83,131 3,44 2,47 -31,63 -19,9 -54,33 -77,54 -40,36 -79,53 -79,33 0,-6 -9,-6 -26,0 -14,6 -28,9 -32,9 -4,-1 -97,-14 -207,-30 z"
         id="path8" />
    </g>
  </g>
</svg>
