<?xml version="1.0" encoding="UTF-8" standalone="no"?>
<!-- Created with Inkscape (http://www.inkscape.org/) -->

<svg
   xmlns:dc="http://purl.org/dc/elements/1.1/"
   xmlns:cc="http://creativecommons.org/ns#"
   xmlns:rdf="http://www.w3.org/1999/02/22-rdf-syntax-ns#"
   xmlns:svg="http://www.w3.org/2000/svg"
   xmlns="http://www.w3.org/2000/svg"
   xmlns:sodipodi="http://sodipodi.sourceforge.net/DTD/sodipodi-0.dtd"
   xmlns:inkscape="http://www.inkscape.org/namespaces/inkscape"
   width="256px"
   height="256px"
   viewBox="0 0 256 256"
   version="1.1"
   id="SVGRoot"
   inkscape:version="0.92+devel unknown"
   sodipodi:docname="d.svg">
  <sodipodi:namedview
     id="base"
     pagecolor="#ffffff"
     bordercolor="#666666"
     borderopacity="1.0"
     inkscape:pageopacity="0.0"
     inkscape:pageshadow="2"
     inkscape:zoom="1"
     inkscape:cx="128"
     inkscape:cy="128"
     inkscape:document-units="px"
     inkscape:current-layer="layer1"
     inkscape:document-rotation="0"
     showgrid="false"
     inkscape:window-width="1920"
     inkscape:window-height="1005"
     inkscape:window-x="0"
     inkscape:window-y="0"
     inkscape:window-maximized="1"
     inkscape:grid-bbox="true" />
  <defs
     id="defs3562" />
  <metadata
     id="metadata3565">
    <rdf:RDF>
      <cc:Work
         rdf:about="">
        <dc:format>image/svg+xml</dc:format>
        <dc:type
           rdf:resource="http://purl.org/dc/dcmitype/StillImage" />
        <dc:title></dc:title>
      </cc:Work>
    </rdf:RDF>
  </metadata>
  <g
     id="layer1"
     inkscape:groupmode="layer"
     inkscape:label="Layer 1">
    <path
       style="stroke-width:0.05971861"
       inkscape:connector-curvature="0"
       d="m 154.46144,12.328749 c -1.4753,0.241733 -2.9506,0.664772 -3.30467,0.84607 -1.00321,0.664772 -2.12444,33.117599 -1.88839,54.692388 0.17704,18.794846 0.17704,18.85527 -1.00321,17.707037 -4.07184,-3.928192 -16.64141,-6.587256 -31.09937,-6.647699 -12.33353,0 -24.667041,2.236051 -31.748498,5.92249 -11.743408,5.982933 -19.82806,24.656905 -21.834472,50.401605 -0.767156,10.03198 0.05903,36.92492 1.475303,46.83603 1.180242,8.21896 4.366896,20.97045 6.786387,27.13467 5.016029,12.93279 14.221914,22.42086 26.909517,27.67858 9.382913,3.92818 25.493223,5.25772 32.810713,2.71951 5.96023,-2.05474 10.44514,-5.86205 13.80883,-11.90542 0.59012,-1.02736 1.41629,-1.93386 1.77036,-1.93386 1.12123,0 2.00641,3.50515 2.47851,9.7298 l 0.41308,5.68076 6.13727,0.5439 c 3.36368,0.24173 12.86463,0.30217 21.0083,0.0605 l 14.93006,-0.42304 0.35407,-1.813 c 0.59012,-3.02168 0.41308,-32.15067 -0.82617,-122.55929 -0.64914,-47.379929 -1.18024,-90.10647 -1.18024,-94.941157 v -8.883788 l -1.88839,-0.362603 C 185.5018,12.26833 157.41204,11.845299 154.46144,12.328765 Z M 137.93806,117.06014 c 4.66195,0.78564 8.14366,2.65907 9.55996,5.13685 1.88838,3.38429 2.83258,9.72981 3.18665,22.29999 0.4721,14.38319 -0.4721,31.1233 -2.12444,38.55663 -2.71455,12.38888 -8.20268,17.34444 -19.23794,17.34444 -12.39253,0 -20.5362,-6.40597 -26.26038,-20.72873 -2.95059,-7.25203 -3.658741,-12.57018 -3.363686,-24.23386 0.295062,-8.64199 0.590126,-11.36151 1.947406,-16.67967 1.94739,-7.61463 3.12764,-10.15284 6.66836,-14.02059 5.90121,-6.46639 18.0577,-9.60893 29.62407,-7.67506 z"
       id="path84" />
    <path
       style="stroke-width:0.05971861"
       inkscape:connector-curvature="0"
       d="m 129.67636,126.72951 c -7.19947,1.26911 -13.80882,5.98293 -16.40536,11.60325 -3.24566,7.13116 -5.25207,20.42654 -4.54393,30.63983 1.29827,19.76177 7.14047,28.40377 19.23794,28.40377 11.38933,0 16.46438,-5.43901 18.64782,-19.94308 0.82617,-5.49945 1.06222,-10.93848 1.06222,-26.28861 0,-21.21217 0,-21.27261 -3.59973,-23.68996 -1.82938,-1.20866 -9.50095,-1.63171 -14.39896,-0.7252 z"
       id="path86" />
  </g>
</svg>
